<?xml version="1.0" encoding="UTF-8" standalone="no"?>
<!-- Created with Inkscape (http://www.inkscape.org/) -->

<svg
   xmlns:dc="http://purl.org/dc/elements/1.1/"
   xmlns:cc="http://creativecommons.org/ns#"
   xmlns:rdf="http://www.w3.org/1999/02/22-rdf-syntax-ns#"
   xmlns:svg="http://www.w3.org/2000/svg"
   xmlns="http://www.w3.org/2000/svg"
   xmlns:sodipodi="http://sodipodi.sourceforge.net/DTD/sodipodi-0.dtd"
   xmlns:inkscape="http://www.inkscape.org/namespaces/inkscape"
   width="1050"
   height="1050"
   viewBox="0 0 277.81248 277.81249"
   version="1.1"
   id="svg8"
   inkscape:version="0.92.2 5c3e80d, 2017-08-06"
   sodipodi:docname="sakuragumi.svg"
   inkscape:export-filename="/Users/ryuto/Desktop/sakuragumi.png"
   inkscape:export-xdpi="96"
   inkscape:export-ydpi="96">
  <defs
     id="defs2" />
  <sodipodi:namedview
     id="base"
     pagecolor="#ffffff"
     bordercolor="#666666"
     borderopacity="1.0"
     inkscape:pageopacity="0.0"
     inkscape:pageshadow="2"
     inkscape:zoom="0.31399252"
     inkscape:cx="-647.39496"
     inkscape:cy="721.40459"
     inkscape:document-units="mm"
     inkscape:current-layer="layer1"
     showgrid="true"
     units="px"
     fit-margin-top="0"
     fit-margin-left="0"
     fit-margin-right="0"
     fit-margin-bottom="0"
     inkscape:window-width="1920"
     inkscape:window-height="1035"
     inkscape:window-x="235"
     inkscape:window-y="1"
     inkscape:window-maximized="1"
     inkscape:snap-grids="false"
     inkscape:snap-to-guides="true"
     inkscape:snap-global="false">
    <inkscape:grid
       type="xygrid"
       id="grid8"
       visible="false" />
  </sodipodi:namedview>
  <metadata
     id="metadata5">
    <rdf:RDF>
      <cc:Work
         rdf:about="">
        <dc:format>image/svg+xml</dc:format>
        <dc:type
           rdf:resource="http://purl.org/dc/dcmitype/StillImage" />
        <dc:title />
      </cc:Work>
    </rdf:RDF>
  </metadata>
  <g
     inkscape:label="レイヤー 1"
     inkscape:groupmode="layer"
     id="layer1"
     transform="translate(473.79316,-66.623469)">
    <circle
       style="fill:#ffffff;fill-opacity:1;stroke:#ff00c1;stroke-width:13.22916698;stroke-miterlimit:4;stroke-dasharray:none;stroke-opacity:1"
       id="path10"
       cx="-334.8869"
       cy="205.52972"
       r="132.29167" />
    <g
       id="g924"
       transform="matrix(1.3490043,0.87914298,-0.87914298,1.3490043,518.95264,472.92909)"
       style="stroke:#ffdeff;stroke-opacity:1">
      <ellipse
         transform="scale(1,-1)"
         ry="15.909747"
         rx="11.907198"
         cy="-93.749931"
         cx="-518.87457"
         id="path899-2"
         style="fill:#ff00c1;fill-opacity:1;stroke:#ffdeff;stroke-width:1.47291994;stroke-linecap:square;stroke-linejoin:round;stroke-miterlimit:4;stroke-dasharray:none;stroke-opacity:1" />
      <ellipse
         transform="scale(1,-1)"
         ry="19.170109"
         rx="13.060954"
         cy="-90.168709"
         cx="-524.77301"
         id="path899"
         style="fill:#ff00c1;fill-opacity:1;stroke:#ffdeff;stroke-width:1.69333339;stroke-linecap:square;stroke-linejoin:round;stroke-miterlimit:4;stroke-dasharray:none;stroke-opacity:1" />
      <path
         sodipodi:nodetypes="cccccc"
         inkscape:connector-curvature="0"
         id="rect918"
         d="m -528.31705,108.14897 c 3.58924,0.97758 7.94359,2.34792 13.43917,0.26173 9.64251,-6.96641 6.72035,0.98131 6.55845,2.81873 -0.43334,7.23127 -5.9283,8.28069 -13.50431,11.17035 -4.40064,-4.23583 -8.9231,-2.38613 -11.27447,-10.37235 -2.05341,-7.56865 4.78116,-3.87846 4.78116,-3.87846 z"
         style="fill:#ff00c1;fill-opacity:1;stroke:#ffdeff;stroke-width:1.69333339;stroke-linecap:square;stroke-linejoin:round;stroke-miterlimit:4;stroke-dasharray:none;stroke-opacity:1;paint-order:fill markers stroke" />
    </g>
    <path
       style="fill:#ff00c1;fill-opacity:1;stroke:#ffdeff;stroke-width:2.49571013;stroke-linecap:square;stroke-linejoin:round;stroke-miterlimit:4;stroke-dasharray:none;stroke-opacity:1"
       d="m -324.59811,100.00747 c -2.59648,-0.424244 -6.10891,3.6846 -13.2423,9.83293 -5.212,-15.910053 -3.96544,-20.385813 -16.21234,-9.05869 -7.39797,7.30514 -11.75934,11.30199 -11.13192,20.71892 -3.92148,-4.58251 -6.82326,-6.49892 -10.03591,-7.40571 -3.21235,-0.90779 -6.73187,-0.8019 -11.89982,-1.31597 -16.71264,-0.1947 -12.84456,2.36971 -6.36823,17.80843 -16.74145,0.0405 -20.61203,-2.52197 -13.62394,12.62615 4.66144,9.29298 7.11442,14.67691 16.26458,16.99021 -11.14365,4.62649 -10.91071,8.65788 -15.08235,18.16977 -5.34988,15.83439 -1.70415,12.94731 14.98016,11.55872 -5.13542,15.93489 -8.7741,18.81908 7.79206,16.85403 10.27871,-1.5618 16.15511,-2.23394 21.18265,-10.22136 0.95687,12.02775 4.86655,13.05199 12.62359,19.95898 13.40645,9.98095 11.78502,5.62876 15.62092,-10.66778 13.56746,9.80772 15.18328,14.15926 18.43363,-2.20332 1.69086,-10.25839 2.87029,-16.05687 -3.17287,-23.3066 11.73504,2.80696 13.91622,-0.59874 22.88224,-5.84167 13.63539,-9.66589 8.9916,-9.469 -5.32191,-18.15285 13.51957,-9.87318 18.15998,-10.07361 3.60207,-18.22049 -4.61674,-2.38906 -8.20776,-4.30197 -11.74497,-5.18901 -3.53674,-0.88699 -8.79006,-2.92485 -11.39792,1.00774 6.29296,-10.29164 3.73428,-13.40722 1.51877,-23.55424 -2.17844,-6.98013 -3.64691,-10.05823 -5.66619,-10.38819 z"
       id="rect10"
       inkscape:connector-curvature="0"
       sodipodi:nodetypes="cccccccccccccccccccccccc" />
    <path
       style="fill:#ff00c1;fill-opacity:1;stroke:#ffdeff;stroke-width:2.76388121;stroke-linecap:square;stroke-linejoin:round;stroke-miterlimit:4;stroke-dasharray:none;stroke-opacity:1"
       d="m -321.72903,187.35618 c -2.30826,-1.77794 -7.89142,0.38189 -18.07617,2.62722 3.27932,-18.24866 6.84639,-21.95684 -11.04454,-17.34994 -11.05055,3.23401 -17.40245,4.83858 -21.73911,14.34838 -1.4149,-6.52789 -3.23668,-9.9209 -5.89204,-12.49303 -2.65456,-2.57295 -6.1412,-4.31913 -10.90905,-7.53586 -16.19003,-8.97178 -13.76674,-4.43931 -15.56585,14.01426 -16.34169,-8.75768 -18.76845,-13.28952 -19.91597,5.14966 -0.33897,11.5087 -0.77676,18.04619 6.92773,25.10944 -13.29448,-1.3455 -15.18578,2.70692 -24.25071,9.78751 -13.53581,12.62497 -8.46469,11.72622 8.52969,19.13964 -13.37956,12.83564 -18.44227,13.73527 -1.26016,20.52464 10.84086,3.87863 16.92267,6.31126 26.02091,1.16653 -5.3874,12.22805 -2.11425,15.28097 1.81828,26.09033 7.82462,16.77462 8.5309,11.67986 20.83366,-2.19118 8.0726,16.69034 7.36119,21.78151 19.12782,7.53839 7.0388,-9.11191 11.2355,-14.1448 9.15383,-24.38771 9.96493,8.90276 13.88084,6.72887 25.37636,6.32915 18.37161,-2.25781 13.74114,-4.50607 4.35071,-20.49282 18.36761,-2.52076 22.99664,-0.27777 13.08578,-15.86947 -3.24527,-4.75493 -5.74079,-8.50672 -8.72297,-11.23012 -2.98171,-2.72311 -7.03208,-7.47019 -11.6408,-5.00685 11.54263,-6.72606 10.68543,-11.1078 13.85758,-22.16381 1.5442,-7.94927 1.73011,-11.7216 -0.065,-13.10434 z"
       id="rect10-4"
       inkscape:connector-curvature="0"
       sodipodi:nodetypes="cccccccccccccccccccccccc"
       inkscape:export-filename="/Users/ryuto/Desktop/rect10-4.png"
       inkscape:export-xdpi="96"
       inkscape:export-ydpi="96" />
    <circle
       style="fill:#ffdeff;fill-opacity:1;stroke:none;stroke-width:2.36177397;stroke-linecap:square;stroke-linejoin:round;stroke-miterlimit:4;stroke-dasharray:none;stroke-opacity:1;paint-order:fill markers stroke"
       id="path941-8"
       cx="-385.33243"
       cy="229.01791"
       r="7.6392798" />
    <path
       style="fill:#ff00c1;fill-opacity:1;stroke:#ffdeff;stroke-width:3.04771304;stroke-linecap:square;stroke-linejoin:round;stroke-miterlimit:4;stroke-dasharray:none;stroke-opacity:1"
       d="m -315.0408,154.91955 c -2.94262,1.28967 -3.8133,7.83312 -7.04023,18.87144 -15.90768,-12.84303 -17.60277,-18.25762 -22.63055,1.48395 -2.72974,12.39956 -4.54479,19.39203 2.35234,28.62576 -7.06214,-2.09171 -11.30862,-2.12845 -15.20317,-0.92407 -3.89487,1.20317 -7.43135,3.64909 -13.06884,6.55452 -17.25634,10.89997 -11.58921,10.95902 5.30112,22.47936 -17.12966,11.1601 -22.79801,11.10472 -5.57621,21.98737 10.94883,6.42754 17.03832,10.31584 27.95168,6.60955 -8.34729,12.14213 -5.43118,16.11875 -3.38904,28.63703 5.03369,19.78003 6.85239,14.40012 23.02815,1.8964 5.32021,19.74063 3.50684,25.1129 19.17868,12.0969 9.49629,-8.42698 15.07202,-13.01853 14.91945,-24.54298 8.96871,11.69045 13.65551,10.14353 26.1921,12.07004 20.36759,1.32468 15.81551,-2.05857 8.92334,-21.30674 20.41753,1.04023 24.96345,4.42652 17.42739,-14.50044 -5.08021,-11.63568 -7.72253,-18.36124 -18.73036,-21.77724 13.8902,-4.91711 13.86363,-9.85585 19.5699,-21.18347 7.55398,-18.96134 2.9258,-15.67544 -17.50985,-15.06846 7.29759,-19.09682 11.91996,-22.38412 -8.40954,-21.06453 -6.31789,0.61789 -11.26838,1.04246 -15.4824,2.48264 -4.21351,1.43993 -10.95055,2.84044 -11.01128,8.60251 -0.38605,-14.72621 -5.07745,-16.21969 -14.08682,-25.14691 -6.86824,-5.70641 -10.4174,-7.88554 -12.70586,-6.88263 z"
       id="rect10-0"
       inkscape:connector-curvature="0"
       sodipodi:nodetypes="cccccccccccccccccccccccc" />
    <circle
       style="fill:#ffdeff;fill-opacity:1;stroke:none;stroke-width:2.75254321;stroke-linecap:square;stroke-linejoin:round;stroke-miterlimit:4;stroke-dasharray:none;stroke-opacity:1;paint-order:fill markers stroke"
       id="path941"
       cx="-307.1713"
       cy="231.16487"
       r="8.9032421" />
    <circle
       style="fill:#ffdeff;fill-opacity:1;stroke:none;stroke-width:1.96964908;stroke-linecap:square;stroke-linejoin:round;stroke-miterlimit:4;stroke-dasharray:none;stroke-opacity:1;paint-order:fill markers stroke"
       id="path941-3"
       cx="-352.09323"
       cy="151.2355"
       r="6.3709316" />
  </g>
</svg>
